<?xml version="1.0" encoding="utf-8" ?>	<!-- Generator: Assembly 2.2 - http://assemblyapp.co -->	<svg version="1.1" xmlns="http://www.w3.org/2000/svg" xmlns:xlink="http://www.w3.org/1999/xlink" width="2048.00" height="1365.33" viewBox="0 0 2048.0 1365.3333333333335">		<g id="document" transform="matrix(1,0,0,1,1024.0,682.6666666666667)">			<path d="M-499.984,247.487 L-499.984,-557.744 L-538.215,-557.744 L-538.215,131.601 L-815.387,-557.744 L-847.644,-557.744 L-847.644,247.487 L-809.413,247.487 L-809.413,-441.858 L-531.047,247.487 L-499.984,247.487 Z M-55.5538,247.487 L-17.3232,247.487 L-201.308,-557.744 L-231.176,-557.744 L-353.036,-35.6578 L-353.036,-32.0737 L-416.355,247.487 L-378.124,247.487 L-323.168,1.37809 L-110.51,1.37809 L-55.5538,247.487 Z M-216.839,-456.194 L-118.873,-35.6578 L-313.61,-35.6578 L-216.839,-456.194 Z M253.875,247.487 L392.461,-392.875 L392.461,247.487 L430.691,247.487 L430.691,-557.744 L390.071,-557.744 L239.538,124.433 L87.8109,-557.744 L48.3856,-557.744 L48.3856,247.487 L85.4215,247.487 L85.4215,-392.875 L225.202,247.487 L253.875,247.487 Z M661.27,247.487 C789.103,247.487 847.644,173.416 847.644,30.051 L847.644,-340.308 C847.644,-483.672 789.103,-557.744 661.27,-557.744 L523.878,-557.744 L523.878,247.487 L661.27,247.487 Z M661.27,-520.708 C765.209,-520.708 809.413,-464.557 809.413,-340.308 L809.413,30.051 C809.413,154.3 765.209,210.452 661.27,210.452 L560.914,210.452 L560.914,-520.708 L661.27,-520.708 Z " fill="#a5ae31" fill-opacity="1.00" stroke-width="8.39" stroke="#000000" stroke-linecap="square" stroke-linejoin="miter" />			<defs>				<filter id="0tQK807o" x="0.00%" y="0.00%" width="101.91%" height="104.05%" filterUnits="objectBoundingBox">					<feOffset dx="16.70" dy="12.52" in="SourceAlpha" result="shadowOffsetOuter1" />					<feGaussianBlur stdDeviation="0.00" in="shadowOffsetOuter1" result="shadowBlurOuter1" />					<feFlood flood-color="#000000" flood-opacity="1.00" />					<feComposite in2="shadowBlurOuter1" operator="in" />					<feMerge>						<feMergeNode />						<feMergeNode in="SourceGraphic" />					</feMerge>				</filter>			</defs>			<path d="M94.3803,417.981 L41.4822,417.981 L49.0963,364.682 L25.0517,364.682 L17.4376,417.981 L-22.6367,417.981 L-25.4419,439.621 L14.6324,439.621 L-2.19879,560.245 C-3.26744,566.924 -3.33423,573.135 -2.39917,578.879 C-1.4641,584.623 0.606408,589.632 3.81235,593.907 C7.0183,598.182 11.4933,601.588 17.2372,604.126 C22.9812,606.664 30.1278,607.933 38.677,607.933 C43.2188,607.933 48.562,607.265 54.7067,605.929 C60.8515,604.594 66.1947,603.124 70.7364,601.521 L71.9387,579.881 C67.3969,581.751 62.6548,583.287 57.7123,584.49 C52.7698,585.692 48.0277,586.293 43.4859,586.293 C35.4711,586.293 29.5267,584.022 25.6529,579.48 C21.779,574.939 20.51,568.527 21.8458,560.245 L38.677,439.621 L91.5751,439.621 L94.3803,417.981 Z M120.696,510.552 C118.558,524.712 119.093,537.736 122.299,549.625 C125.505,561.514 130.781,571.799 138.128,580.482 C145.475,589.165 154.826,595.911 166.18,600.72 C177.534,605.529 190.291,607.933 204.451,607.933 C218.611,607.933 231.969,605.529 244.525,600.72 C257.082,595.911 268.303,589.165 278.188,580.482 C288.073,571.799 296.221,561.514 302.633,549.625 C309.045,537.736 313.32,524.712 315.457,510.552 C317.327,496.393 316.726,483.369 313.654,471.48 C310.581,459.591 305.305,449.306 297.824,440.623 C290.344,431.94 280.993,425.194 269.772,420.385 C258.551,415.576 245.861,413.172 231.702,413.172 C217.542,413.172 204.117,415.576 191.427,420.385 C178.737,425.194 167.516,431.94 157.764,440.623 C148.013,449.306 139.865,459.591 133.319,471.48 C126.774,483.369 122.566,496.393 120.696,510.552 Z M144.74,510.552 C146.343,500.133 149.482,490.315 154.158,481.098 C158.833,471.881 164.844,463.866 172.191,457.053 C179.538,450.241 188.021,444.831 197.638,440.823 C207.256,436.816 217.676,434.812 228.896,434.812 C240.117,434.812 250.002,436.816 258.551,440.823 C267.101,444.831 274.047,450.241 279.39,457.053 C284.733,463.866 288.474,471.881 290.611,481.098 C292.748,490.315 293.015,500.133 291.412,510.552 C289.809,520.972 286.67,530.79 281.995,540.007 C277.32,549.224 271.308,557.239 263.961,564.052 C256.614,570.864 248.132,576.274 238.514,580.282 C228.896,584.289 218.477,586.293 207.256,586.293 C196.035,586.293 186.15,584.289 177.601,580.282 C169.052,576.274 162.106,570.864 156.763,564.052 C151.419,557.239 147.679,549.224 145.542,540.007 C143.405,530.79 143.137,520.972 144.74,510.552 Z M365.416,510.552 C363.279,524.712 363.813,537.736 367.019,549.625 C370.225,561.514 375.502,571.799 382.849,580.482 C390.195,589.165 399.546,595.911 410.901,600.72 C422.255,605.529 435.012,607.933 449.172,607.933 C463.331,607.933 476.689,605.529 489.246,600.72 C501.802,595.911 513.023,589.165 522.908,580.482 C532.793,571.799 540.942,561.514 547.354,549.625 C553.765,537.736 558.04,524.712 560.177,510.552 C562.047,496.393 561.446,483.369 558.374,471.48 C555.302,459.591 550.025,449.306 542.545,440.623 C535.064,431.94 525.713,425.194 514.493,420.385 C503.272,415.576 490.582,413.172 476.422,413.172 C462.262,413.172 448.838,415.576 436.147,420.385 C423.457,425.194 412.236,431.94 402.485,440.623 C392.734,449.306 384.585,459.591 378.04,471.48 C371.494,483.369 367.286,496.393 365.416,510.552 Z M389.461,510.552 C391.064,500.133 394.203,490.315 398.878,481.098 C403.554,471.881 409.565,463.866 416.912,457.053 C424.259,450.241 432.741,444.831 442.359,440.823 C451.977,436.816 462.396,434.812 473.617,434.812 C484.838,434.812 494.723,436.816 503.272,440.823 C511.821,444.831 518.767,450.241 524.11,457.053 C529.454,463.866 533.194,471.881 535.331,481.098 C537.469,490.315 537.736,500.133 536.133,510.552 C534.53,520.972 531.391,530.79 526.715,540.007 C522.04,549.224 516.029,557.239 508.682,564.052 C501.335,570.864 492.853,576.274 483.235,580.282 C473.617,584.289 463.198,586.293 451.977,586.293 C440.756,586.293 430.871,584.289 422.322,580.282 C413.773,576.274 406.826,570.864 401.483,564.052 C396.14,557.239 392.4,549.224 390.262,540.007 C388.125,530.79 387.858,520.972 389.461,510.552 Z M611.74,603.124 L635.784,603.124 L678.263,300.162 L654.218,300.162 L611.74,603.124 Z M694.159,570.263 C699.502,583.087 708.385,592.571 720.809,598.716 C733.232,604.861 747.458,607.933 763.488,607.933 C772.304,607.933 780.92,606.731 789.336,604.326 C797.751,601.922 805.365,598.315 812.178,593.506 C818.991,588.697 824.735,582.753 829.41,575.673 C834.085,568.593 837.091,560.245 838.427,550.627 C840.03,538.07 838.627,528.386 834.219,521.573 C829.811,514.76 823.8,509.551 816.185,505.944 C808.571,502.337 800.156,499.732 790.939,498.129 C781.721,496.526 773.172,494.59 765.291,492.319 C757.41,490.048 751.065,486.909 746.256,482.901 C741.447,478.894 739.577,472.749 740.645,464.467 C741.447,459.658 743.317,455.384 746.256,451.643 C749.194,447.903 752.801,444.831 757.076,442.426 C761.35,440.022 765.892,438.152 770.701,436.816 C775.51,435.48 780.052,434.812 784.326,434.812 C795.28,434.812 803.762,437.016 809.773,441.424 C815.785,445.832 820.527,452.311 824,460.86 L847.644,448.037 C843.102,436.014 835.688,427.198 825.402,421.588 C815.117,415.977 802.36,413.172 787.132,413.172 C779.384,413.172 771.636,414.241 763.888,416.378 C756.141,418.515 748.927,421.788 742.248,426.196 C735.569,430.604 729.892,436.148 725.217,442.827 C720.541,449.506 717.536,457.387 716.2,466.471 C714.864,475.287 715.398,482.567 717.803,488.311 C720.207,494.055 723.747,498.797 728.423,502.538 C733.098,506.278 738.575,509.217 744.853,511.354 C751.131,513.491 757.61,515.295 764.289,516.764 C770.968,518.233 777.447,519.77 783.725,521.373 C790.004,522.976 795.547,524.979 800.356,527.384 C805.165,529.788 808.838,532.927 811.376,536.801 C813.915,540.675 814.783,545.818 813.981,552.23 C813.18,557.573 811.243,562.315 808.171,566.456 C805.098,570.597 801.358,574.137 796.95,577.076 C792.542,580.015 787.666,582.286 782.323,583.888 C776.979,585.491 771.77,586.293 766.694,586.293 C755.74,586.293 745.721,583.688 736.638,578.478 C727.554,573.269 721.142,565.721 717.402,555.836 L694.159,570.263 Z " fill="#f1cf40" fill-opacity="1.00" stroke-width="1.75" stroke="#000000" stroke-linecap="square" stroke-linejoin="miter" filter="url(#0tQK807o)" />		</g>	</svg>